PathFileType	4	(X/Y/Z)	c:/Users/goper/Files/vsCode/490R/osim_files/C07/C07_Fast_02.trc
DataRate	CameraRate	NumFrames	NumMarkers	Units                	OrigDataRate	OrigDataStartFrame	OrigNumFrames
250.00	250.00	5	36	mm	250.0	435	1739
                Frame#	Time	LPSIS			LASIS			LTH1			LTH2			LTH3			LTH4			LLFE			LMFE			LSH1			LSH2			LSH3			LSH4			LLMAL			LMMAL			LCAL			LMTP5			LTOE			LMTP1			RPSIS			RASIS			RTH1			RTH2			RTH3			RTH4			RLFE			RMFE			RSH1			RSH2			RSH3			RSH4			RLMAL			RMMAL			RCAL			RMTP1			RTOE			RMTP5		
		X1	Y1	Z1	X2	Y2	Z2	X3	Y3	Z3	X4	Y4	Z4	X5	Y5	Z5	X6	Y6	Z6	X7	Y7	Z7	X8	Y8	Z8	X9	Y9	Z9	X10	Y10	Z10	X11	Y11	Z11	X12	Y12	Z12	X13	Y13	Z13	X14	Y14	Z14	X15	Y15	Z15	X16	Y16	Z16	X17	Y17	Z17	X18	Y18	Z18	X19	Y19	Z19	X20	Y20	Z20	X21	Y21	Z21	X22	Y22	Z22	X23	Y23	Z23	X24	Y24	Z24	X25	Y25	Z25	X26	Y26	Z26	X27	Y27	Z27	X28	Y28	Z28	X29	Y29	Z29	X30	Y30	Z30	X31	Y31	Z31	X32	Y32	Z32	X33	Y33	Z33	X34	Y34	Z34	X35	Y35	Z35	X36	Y36	Z36

435	1.73600	0.00000	0.00000	0.00000	0.00000	0.00000	0.00000	0.00000	0.00000	0.00000	0.00000	0.00000	0.00000	1166.14648	631.05737	486.38159	0.00000	0.00000	0.00000	1227.59375	518.49677	461.19943	1231.50403	506.38458	340.64322	1346.44495	358.37494	464.36398	1360.65613	315.95700	455.46249	0.00000	0.00000	0.00000	0.00000	0.00000	0.00000	0.00000	0.00000	0.00000	1403.28284	163.05588	337.01056	0.00000	0.00000	0.00000	0.00000	0.00000	0.00000	1279.24512	53.49894	380.72070	1309.36816	47.48989	326.62189	1101.05237	937.61621	457.17825	0.00000	0.00000	0.00000	0.00000	0.00000	0.00000	996.05151	740.33759	133.59225	966.48529	663.34198	138.42667	933.35596	763.63800	174.05981	900.84351	506.50543	176.73383	909.90723	508.60126	291.70181	887.51147	317.82611	161.50845	842.07050	285.10260	156.70853	832.62488	344.15442	161.21912	815.84149	301.88181	163.16811	786.52588	113.03527	196.76346	764.12280	136.90192	274.45511	805.72455	44.75954	249.39743	614.90332	131.09259	277.33008	599.72290	148.82808	226.37511	630.00049	105.25883	169.45190
436	1.74000	1180.01453	986.78052	371.99982	1016.92389	956.93341	460.10016	0.00000	0.00000	0.00000	0.00000	0.00000	0.00000	1160.92834	630.63385	486.25800	0.00000	0.00000	0.00000	1222.46082	518.15546	461.14011	1226.19116	505.97162	340.53638	1342.26892	359.01593	464.69470	0.00000	0.00000	0.00000	0.00000	0.00000	0.00000	0.00000	0.00000	0.00000	0.00000	0.00000	0.00000	1401.53284	164.24771	337.23062	1506.63513	107.22141	353.13354	0.00000	0.00000	0.00000	1279.29236	53.27975	380.84219	1309.32080	47.50779	326.69778	0.00000	0.00000	0.00000	0.00000	0.00000	0.00000	0.00000	0.00000	0.00000	990.05115	739.84369	133.73514	960.58746	663.14270	138.28339	927.26672	763.47852	173.48410	895.09369	505.97272	176.96297	903.15381	508.59741	291.93298	882.95471	317.09113	162.01126	837.56506	283.90549	157.29515	827.75647	343.00479	161.59958	811.15674	300.57523	163.71129	782.84985	111.61434	197.48782	760.35327	135.66904	275.23468	802.35492	43.57219	250.57222	611.27661	129.54504	278.32214	596.23987	146.35295	226.79417	626.24500	103.01134	170.38768
437	1.74400	0.00000	0.00000	0.00000	1011.02826	956.25525	459.93884	0.00000	0.00000	0.00000	0.00000	0.00000	0.00000	1155.33643	629.99188	485.99957	0.00000	0.00000	0.00000	1217.86365	517.80713	461.02353	1220.77832	505.58994	340.43015	1338.12756	359.75995	464.95721	1174.03186	986.10272	371.82129	0.00000	0.00000	0.00000	0.00000	0.00000	0.00000	0.00000	0.00000	0.00000	1399.79163	165.78580	337.60107	0.00000	0.00000	0.00000	0.00000	0.00000	0.00000	1279.12976	53.22669	380.86948	1309.23755	47.49314	326.78671	1353.29333	317.12265	455.92078	0.00000	0.00000	0.00000	0.00000	0.00000	0.00000	984.01776	739.57025	133.68880	954.39410	662.85504	138.19826	921.02686	763.36890	173.06438	889.32477	505.46521	177.21890	896.80640	508.60583	292.03830	878.12469	316.14093	162.84401	833.11163	282.77197	157.94972	822.91925	341.77988	162.06056	806.61548	299.29514	164.20158	779.62238	109.99635	198.55148	756.94757	134.24959	276.12460	799.34222	42.45310	251.64484	608.03540	127.66752	279.23212	592.72650	144.23308	227.76648	623.01471	100.49828	171.36269
438	1.74800	0.00000	0.00000	0.00000	1005.11353	955.61377	459.76340	0.00000	0.00000	0.00000	0.00000	0.00000	0.00000	1149.91345	629.56567	485.76962	0.00000	0.00000	0.00000	1212.03186	517.73730	460.88525	1215.12915	505.09021	340.41467	1334.35889	360.84491	464.80194	0.00000	0.00000	0.00000	0.00000	0.00000	0.00000	0.00000	0.00000	0.00000	1428.11108	152.83983	411.65353	1397.83765	166.95403	337.94302	0.00000	0.00000	0.00000	0.00000	0.00000	0.00000	1279.00696	53.18375	380.97217	1309.11597	47.53967	326.88101	0.00000	0.00000	0.00000	0.00000	0.00000	0.00000	0.00000	0.00000	0.00000	977.86041	739.32440	133.55896	948.22290	662.61847	138.10519	914.78668	763.30054	172.48999	883.43726	504.90216	177.55798	890.40680	508.58072	292.13846	873.63269	315.47736	163.42899	828.72632	281.65182	158.60709	818.10229	340.48990	162.66243	802.09583	297.86215	164.95122	776.61993	108.58548	199.38937	753.82440	132.71423	276.95432	796.96301	41.17112	252.84155	605.13861	125.35458	280.10406	589.68518	141.61543	228.39273	620.13367	97.67035	172.28067
439	1.75200	0.00000	0.00000	0.00000	999.19647	954.94910	459.58594	0.00000	0.00000	0.00000	0.00000	0.00000	0.00000	1144.43701	629.13446	485.45502	0.00000	0.00000	0.00000	1206.58179	517.40167	460.60245	1209.47900	504.61346	340.29749	1330.31409	361.82397	464.78812	1345.57446	318.57877	456.34457	0.00000	0.00000	0.00000	0.00000	0.00000	0.00000	0.00000	0.00000	0.00000	1395.80139	168.32076	338.26883	0.00000	0.00000	0.00000	1333.06213	47.59886	434.11591	1278.79602	53.16595	381.00406	1308.96204	47.62492	326.95456	1162.01831	984.98364	371.28406	0.00000	0.00000	0.00000	0.00000	0.00000	0.00000	971.66217	739.10492	133.35117	941.87555	662.38080	138.04172	907.65619	762.39600	173.05972	877.44489	504.25607	177.93747	883.86621	508.91177	292.18503	869.03229	314.65182	164.21144	824.44293	280.34726	159.53024	813.37567	339.29144	163.34799	797.69916	296.57635	165.66209	774.05817	106.92609	200.44478	751.04919	131.19942	277.87854	794.96863	40.02718	254.04726	602.61725	122.76826	280.97736	586.87384	138.53482	229.08804	617.78741	94.62513	173.06197
